<svg width="16" height="16" fill="none" xmlns="http://www.w3.org/2000/svg"><g clip-path="url(#a)"><path d="M15.0376 9.10796 13.771 4.55062c-.3713-1.33511-1.1782-2.50781-2.2925-3.33168C10.3643.395058 9.00658-.0327193 7.62128.00360073 6.23598.0399208 4.90257.538254 3.83301 1.41939c-1.06957.88113-1.81391 2.0945-2.11471 3.44723l-.980669 4.41c-.108323.48729-.105819.99268.007329 1.47888.113147.4862.33405.9408.64639 1.3302.31235.3894.70816.7036 1.15822.9196.45006.2159.94288.328 1.44206.328h.74267c.15301.7535.56182 1.431 1.15716 1.9176.59534.4866 1.34061.7524 2.10951.7524.7689 0 1.51416-.2658 2.10953-.7524.5953-.4866 1.0041-1.1641 1.1571-1.9176h.5587c.5139 0 1.0208-.1187 1.4812-.3471.4604-.2283.8617-.5599 1.1727-.969.311-.4091.5232-.8845.62-1.3892s.0756-1.02491-.0619-1.52004h-.0007ZM8.00097 14.6666c-.41217-.0017-.81375-.1307-1.1498-.3694-.33605-.2386-.59015-.5753-.72753-.9639H9.8783c-.13738.3886-.39148.7253-.72753.9639-.33605.2387-.73763.3677-1.1498.3694ZM13.4183 11.21c-.1858.2464-.4264.4461-.7029.5833-.2765.1371-.5811.2079-.8898.2067H3.99163c-.29947-.0001-.59512-.0674-.8651-.197-.26999-.1296-.50743-.3182-.69479-.5518-.18736-.2336-.31987-.5063-.38773-.798-.06787-.2917-.06936-.5949-.00438-.88724l.98-4.41067c.23624-1.06253.82087-2.0156 1.66097-2.7077.8401-.6921 1.88745-1.08352 2.97555-1.11202 1.0881-.02851 2.15451.30753 3.02965.9547.8752.64717 1.509 1.56832 1.8005 2.61702l1.2667 4.55733c.0837.29692.097.60928.0389.91218-.0581.303-.186.5883-.3736.8332Z" fill="#4A6375"/></g><defs><clipPath id="a"><path fill="#fff" d="M0 0h16v16H0z"/></clipPath></defs></svg>