<svg width="18" height="18" fill="none" xmlns="http://www.w3.org/2000/svg"><path d="M14.25 3h-.825c-.1741-.84644-.6346-1.60699-1.3041-2.153461C11.4515.300068 10.6142.00109089 9.75 0h-1.5c-.86415.00109089-1.70151.300068-2.37094.846539C5.20964 1.39301 4.74907 2.15356 4.575 3H3.75c-.9942.00119-1.94733.39666-2.65034 1.09966C.396661 4.80267.00119089 5.7558 0 6.75v7.5c.00119089.9942.396661 1.9473 1.09966 2.6503C1.80267 17.6033 2.7558 17.9988 3.75 18h10.5c.9942-.0012 1.9473-.3967 2.6503-1.0997.703-.703 1.0985-1.6561 1.0997-2.6503v-7.5c-.0012-.9942-.3967-1.94733-1.0997-2.65034-.703-.703-1.6561-1.09847-2.6503-1.09966Zm-6-1.5h1.5c.4637.00192.9155.14706 1.2935.41557.3781.2685.6639.64725.8185 1.08443H6.138c.15456-.43718.44042-.81593.81848-1.08443C7.33453 1.64706 7.7863 1.50192 8.25 1.5Zm-4.5 3h10.5c.5967 0 1.169.23705 1.591.65901.4219.42196.659.99425.659 1.59099V9h-15V6.75c0-.59674.23705-1.16903.65901-1.59099C2.58097 4.73705 3.15326 4.5 3.75 4.5Zm10.5 12H3.75c-.59674 0-1.16903-.2371-1.59099-.659C1.73705 15.419 1.5 14.8467 1.5 14.25V10.5h6.75v.75c0 .1989.07902.3897.21967.5303C8.61032 11.921 8.80109 12 9 12c.19891 0 .38968-.079.53033-.2197.14065-.1406.21967-.3314.21967-.5303v-.75h6.75v3.75c0 .5967-.2371 1.169-.659 1.591-.422.4219-.9943.659-1.591.659Z" fill="#BAC8D3"/></svg>