<svg width="20" height="20" fill="none" xmlns="http://www.w3.org/2000/svg"><g clip-path="url(#a)" fill="#869FB2"><path d="M16.6667 0H3.33333C2.44928 0 1.60143.35119.976311.976311.35119 1.60143 0 2.44928 0 3.33333v9.99997c0 .8841.35119 1.7319.976311 2.3571.625119.6251 1.472969.9763 2.357019.9763H5.75l3.70917 3.1358c.15047.1273.34121.1972.53833.1972.1971 0 .3879-.0699.5383-.1972l3.7142-3.1358h2.4167c.884 0 1.7319-.3512 2.357-.9763.6251-.6252.9763-1.473.9763-2.3571V3.33333c0-.88405-.3512-1.7319-.9763-2.357019C18.3986.35119 17.5507 0 16.6667 0Zm1.6666 13.3333c0 .4421-.1756.866-.4881 1.1785-.3126.3126-.7365.4882-1.1785.4882H14.25c-.3939.0001-.7751.1398-1.0758.3942L10 18.075l-3.1725-2.6808c-.3012-.2548-.683-.3945-1.0775-.3942H3.33333c-.44202 0-.86595-.1756-1.17851-.4882-.31256-.3125-.48815-.7364-.48815-1.1785V3.33333c0-.44202.17559-.86595.48815-1.17851.31256-.31256.73649-.48815 1.17851-.48815H16.6667c.442 0 .8659.17559 1.1785.48815.3125.31256.4881.73649.4881 1.17851v9.99997Z"/><path d="M5.83333 5.83317H10c.221 0 .433-.08779.5893-.24408.1562-.15628.244-.36824.244-.58925 0-.22102-.0878-.43298-.244-.58926C10.433 4.2543 10.221 4.1665 10 4.1665H5.83333c-.22101 0-.43297.0878-.58925.24408C5.0878 4.56686 5 4.77882 5 4.99984c0 .22101.0878.43297.24408.58925.15628.15629.36824.24408.58925.24408ZM14.1667 7.5H5.83333c-.22101 0-.43297.0878-.58925.24408C5.0878 7.90036 5 8.11232 5 8.33333c0 .22102.0878.43298.24408.58926.15628.15628.36824.24407.58925.24407h8.33337c.221 0 .4329-.08779.5892-.24407.1563-.15628.2441-.36824.2441-.58926 0-.22101-.0878-.43297-.2441-.58925-.1563-.15628-.3682-.24408-.5892-.24408ZM14.1667 10.8335H5.83333c-.22101 0-.43297.0878-.58925.2441C5.0878 11.2339 5 11.4458 5 11.6668c0 .221.0878.433.24408.5893.15628.1563.36824.2441.58925.2441h8.33337c.221 0 .4329-.0878.5892-.2441.1563-.1563.2441-.3683.2441-.5893 0-.221-.0878-.4329-.2441-.5892-.1563-.1563-.3682-.2441-.5892-.2441Z"/></g><defs><clipPath id="a"><path fill="#fff" d="M0 0h20v20H0z"/></clipPath></defs></svg>