<svg width="18" height="18" fill="none" xmlns="http://www.w3.org/2000/svg"><g clip-path="url(#a)"><path d="M10.449 3c.6101.00059 1.195.24321 1.6264.6746.4314.4314.674 1.01632.6746 1.6264 0 .19891.079.38968.2197.53033.1406.14065.3314.21967.5303.21967.1989 0 .3897-.07902.5303-.21967.1407-.14065.2197-.33142.2197-.53033v-.09225c-.025-.9917-.4364-1.93442-1.1464-2.62721-.71-.69279-1.6626-1.08088-2.6546-1.08154H9.75V.75c0-.198913-.07901-.389678-.21967-.53033C9.38968.0790176 9.19892 0 9 0c-.19891 0-.38968.0790176-.53033.21967C8.32902.360322 8.25.551087 8.25.75v.75h-.699c-.90201.00096-1.77428.32267-2.4609.90763-.68663.58496-1.14284 1.39504-1.28711 2.28544-.14427.8904.03282 1.80308.4996 2.57492.46679.77184 1.19285 1.35252 2.04841 1.63826L8.25 9.54V15h-.699c-.61008-.0006-1.195-.2432-1.62639-.6746-.4314-.4314-.67401-1.0163-.67461-1.6264 0-.1989-.07902-.3897-.21967-.5303-.14065-.1407-.33142-.2197-.53033-.2197-.19891 0-.38968.079-.53033.2197-.14065.1406-.21967.3314-.21967.5303v.0922c.02503.9917.4364 1.9345 1.14642 2.6273.71003.6927 1.66256 1.0808 2.65458 1.0815h.699v.75c0 .1989.07902.3897.21967.5303C8.61032 17.921 8.80109 18 9 18c.19892 0 .38968-.079.53033-.2197.14066-.1406.21967-.3314.21967-.5303v-.75h.699c.902-.001 1.7743-.3227 2.4609-.9076.6866-.585 1.1428-1.3951 1.2871-2.2855.1443-.8904-.0328-1.8031-.4996-2.5749-.4668-.77184-1.1928-1.35252-2.0484-1.63825L9.75 8.46V3h.699Zm.7275 7.5157c.5186.1726.9588.5242 1.2418.9917.283.4676.3904 1.0206.3029 1.5601-.0876.5395-.3643 1.0302-.7806 1.3843-.4163.3541-.9451.5484-1.4916.5482H9.75v-4.9598l1.4265.4755ZM8.25 7.95975l-1.425-.4755c-.51844-.17256-.95857-.52397-1.2416-.99136-.28303-.46739-.3905-1.02025-.30317-1.55964.08732-.53938.36375-1.03008.77979-1.38429C6.47607 3.19475 7.00459 3.00015 7.551 3h.699v4.95975Z" fill="#BAC8D3"/></g><defs><clipPath id="a"><path fill="#fff" d="M0 0h18v18H0z"/></clipPath></defs></svg>