<svg width="28" height="28" fill="none" xmlns="http://www.w3.org/2000/svg"><g clip-path="url(#a)"><path d="m23.2725 6.45869-4.0646-4.067c-.7568-.7605-1.6569-1.36344-2.6481-1.773961-.9913-.410517-2.054-.62046352-3.1269-.61770211H8.16537C6.61884.00187939 5.13618.617056 4.04262 1.71062 2.94906 2.80418 2.33388 4.28683 2.33203 5.83336V22.1667c.00185 1.5465.61703 3.0292 1.71059 4.1227C5.13618 27.383 6.61884 27.9982 8.16537 28H19.832c1.5466-.0018 3.0292-.617 4.1228-1.7106 1.0935-1.0935 1.7087-2.5762 1.7106-4.1227v-9.9342c.0029-1.0728-.2071-2.1356-.6179-3.12667-.4107-.99111-1.014-1.89086-1.775-2.64714Zm-1.6496 1.64967c.3562.3665.6626.77838.9111 1.225h-5.0353c-.3094 0-.6062-.12292-.825-.34171-.2187-.2188-.3417-.51554-.3417-.82496V3.13136c.4468.24841.859.55435 1.2262.91l4.0647 4.067ZM23.332 22.1667c0 .9282-.3687 1.8185-1.0251 2.4749-.6564.6563-1.5466 1.0251-2.4749 1.0251H8.16537c-.92826 0-1.8185-.3688-2.47488-1.0251-.65638-.6564-1.02513-1.5467-1.02513-2.4749V5.83336c0-.92826.36875-1.8185 1.02513-2.47487.65638-.65638 1.54662-1.02513 2.47488-1.02513h5.26753c.1913 0 .3768.03733.5658.05483v5.7785c0 .92826.3687 1.8185 1.0251 2.47491.6564.6563 1.5466 1.0251 2.4749 1.0251h5.7785c.0175.189.0548.3733.0548.5658v9.9342Z" fill="#5F7D95"/></g><defs><clipPath id="a"><path fill="#fff" d="M0 0h28v28H0z"/></clipPath></defs></svg>