<svg width="28" height="28" fill="none" xmlns="http://www.w3.org/2000/svg"><g clip-path="url(#a)"><path d="M22.1667 3.49996h-7.616c-.1805.00119-.3588-.03871-.5215-.11667l-3.682-1.848c-.48608-.24203-1.02157-.36821-1.56454-.36866H5.83333c-1.54653.00185-3.02918.61703-4.12274 1.71059C.617029 3.97078.0018525 5.45343 0 6.99996V21c.0018525 1.5465.617029 3.0292 1.71059 4.1227 1.09356 1.0936 2.57621 1.7088 4.12274 1.7106H22.1667c1.5465-.0018 3.0291-.617 4.1227-1.7106C27.383 24.0292 27.9981 22.5465 28 21V9.3333c-.0019-1.54653-.617-3.02919-1.7106-4.12275s-2.5762-1.70874-4.1227-1.71059Zm-16.33337 0h2.94933c.18044-.00119.35878.03871.5215.11667l3.68204 1.84216c.4855.24406 1.021.37224 1.5645.3745h7.616c.6977.00114 1.3791.21079 1.9568.60202.5777.39123 1.0253.9462 1.2853 1.59365l-23.07547.13067V6.99996c0-.92826.36875-1.81849 1.02513-2.47487.65638-.65638 1.54661-1.02513 2.47487-1.02513ZM22.1667 24.5H5.83333c-.92826 0-1.81849-.3688-2.47487-1.0252-.65638-.6563-1.02513-1.5466-1.02513-2.4748V10.493l23.33337-.1319V21c0 .9282-.3688 1.8185-1.0252 2.4748-.6563.6564-1.5466 1.0252-2.4748 1.0252Z" fill="#5F7D95"/></g><defs><clipPath id="a"><path fill="#fff" d="M0 0h28v28H0z"/></clipPath></defs></svg>