<svg width="20" height="19" fill="none" xmlns="http://www.w3.org/2000/svg"><path d="M14.5835.597656c-.9384.014596-1.8563.276545-2.6611.759394-.8047.48285-1.4678 1.1695-1.9223 1.99061-.45444-.82111-1.11753-1.50776-1.92228-1.99061C7.27308.874201 6.35517.612252 5.41679.597656 3.92091.662649 2.51155 1.31703 1.49661 2.41785.481677 3.51867-.0563308 4.97643.000128 6.47266c0 3.78914 3.988332 7.92754 7.333332 10.73334.74685.6276 1.69113.9717 2.66664.9717.9756 0 1.9198-.3441 2.6667-.9717 3.345-2.8058 7.3333-6.9442 7.3333-10.73334.0565-1.49623-.4815-2.95399-1.4965-4.05481C17.4887 1.31703 16.0793.662649 14.5835.597656ZM11.596 15.931c-.4467.3761-1.0119.5824-1.5959.5824-.58394 0-1.14913-.2063-1.59581-.5824-4.28166-3.5925-6.7375-7.03918-6.7375-9.45834-.05696-1.05441.30531-2.08856 1.00781-2.87692.70249-.78836 1.68822-1.26696 2.74219-1.33142 1.05397.06446 2.0397.54306 2.7422 1.33142.7025.78836 1.06477 1.82251 1.0078 2.87692 0 .22101.0878.43297.24408.58925.15628.15628.36824.24408.58923.24408.221 0 .433-.0878.5893-.24408.1563-.15628.2441-.36824.2441-.58925-.057-1.05441.3053-2.08856 1.0078-2.87692s1.6882-1.26696 2.7422-1.33142c1.0539.06446 2.0397.54306 2.7422 1.33142.7024.78836 1.0647 1.82251 1.0078 2.87692 0 2.41916-2.4559 5.86584-6.7375 9.45504v.0033Z" fill="#869FB2"/></svg>