<svg width="16" height="16" fill="none" xmlns="http://www.w3.org/2000/svg"><g clip-path="url(#a)"><path d="M15.414 6.04602 10.3573.988698C9.73149.364692 8.88377.0142822 8 .0142822c-.88378 0-1.7315.3504098-2.35733.9744158L.586007 6.04602c-.186383.18519-.334153.40553-.434744.64826-.1005916.24272-.15200327.503-.15125495.76574v6.54468c0 .5304.21071295 1.0391.58578595 1.4142.375072.3751.883776.5858 1.414206.5858h12c.5304 0 1.0391-.2107 1.4142-.5858S16 14.5351 16 14.0047V7.46002c.0007-.26274-.0507-.52302-.1513-.76574-.1006-.24273-.2483-.46307-.4347-.64826ZM9.99999 14.6713H6v-2.6226c0-.5305.21071-1.0392.58578-1.4142.37508-.3751.88378-.5858 1.41422-.5858.53043 0 1.03914.2107 1.41421.5858.37507.375.58578.8837.58578 1.4142v2.6226Zm4.66671-.6666c0 .1768-.0703.3464-.1953.4714s-.2946.1952-.4714.1952h-2.6667v-2.6226c0-.8841-.3512-1.7319-.9763-2.35704-.62511-.62512-1.47295-.97631-2.357-.97631-.88406 0-1.7319.35119-2.35702.97631-.62512.62514-.97631 1.47294-.97631 2.35704v2.6226H2c-.17681 0-.34637-.0702-.4714-.1952-.12502-.125-.19526-.2946-.19526-.4714V7.46002c.00062-.17668.07079-.34601.19533-.47133l5.05666-5.05533c.3758-.37404.88444-.58403 1.41467-.58403.53022 0 1.03886.20999 1.41466.58403l5.05664 5.05733c.1241.12483.1942.29334.1954.46933v6.54468Z" fill="#4A6375"/></g><defs><clipPath id="a"><path fill="#fff" d="M0 0h16v16H0z"/></clipPath></defs></svg>