<svg width="16" height="16" fill="none" xmlns="http://www.w3.org/2000/svg"><path d="M14.1033 13.1606c1.2244-1.4407 1.8966-3.2699 1.8966-5.16064 0-1.89075-.6722-3.7199-1.8966-5.16067l.5733-.57333c.125-.1251.1952-.29472.1952-.47157-.0001-.17685-.0704-.34643-.1955-.47143-.1251-.12501-.2947-.1952-.4716-.19514-.1768.00007-.3464.07038-.4714.19547l-.5733.57333C11.7192.672243 9.89004 0 7.99929 0c-1.89074 0-3.7199.672243-5.16067 1.89662l-.57333-.57333c-.12582-.12135-.29427-.18843-.46907-.18679-.1748.00164-.34196.07187-.46548.19557-.12351.12369-.19351.29095-.1949.46575-.0014.1748.06592.34316.18745.4688l.57333.57334C.672243 4.28072 0 6.10988 0 8.00063c0 1.89074.672243 3.71987 1.89662 5.16067l-.57333.5733c-.06363.0616-.11436.1352-.14924.2165-.03488.0814-.05321.1689-.05392.2574-.0007.0885.01623.1763.04981.2582.03357.0819.08313.1563.14577.2189.06264.0625.1371.112.21906.1454.08195.0335.16975.0503.25827.0495.08852-.0009.17598-.0193.25729-.0543.08131-.035.15484-.0859.21629-.1496l.57334-.5733c1.44076 1.2244 3.26992 1.8966 5.16067 1.8966 1.89074 0 3.71987-.6722 5.16067-1.8966l.5733.5733c.1258.1214.2943.1885.4691.1868.1748-.0016.342-.0719.4655-.1956.1235-.1236.1935-.2909.1949-.4657.0014-.1748-.0659-.3432-.1875-.4688l-.5733-.5727Zm.5633-5.16064c.0013 1.53765-.5318 3.02794-1.508 4.21604L10.778 9.83529c.3621-.5436.5553-1.18217.5553-1.83533s-.1932-1.29173-.5553-1.83534l2.3806-2.38066c.9762 1.18805 1.5093 2.67835 1.508 4.216Zm-8.66664 0c0-.39556.1173-.78224.33706-1.11114.21976-.3289.53212-.58525.89757-.73662.36545-.15138.76759-.19098 1.15555-.11381.38796.07717.74433.26765 1.02403.54735.27971.27971.47019.63608.54736 1.02404.07717.38796.03756.79009-.11381 1.15555-.15138.36545-.40772.6778-.73662.89757-.3289.21976-.71558.33706-1.11114.33706-.53043 0-1.03914-.21072-1.41422-.58579-.37507-.37507-.58578-.88378-.58578-1.41421Zm2-6.66667c1.53765-.00123 3.02794.53183 4.21604 1.508L9.83529 5.22196c-.5436-.36209-1.18217-.5553-1.83533-.5553s-1.29173.19321-1.83534.5553L3.78396 2.84129c1.18805-.97617 2.67835-1.50923 4.216-1.508ZM1.33329 7.99996c-.00123-1.53765.53183-3.02795 1.508-4.216l2.38067 2.38066c-.36209.54361-.5553 1.18218-.5553 1.83534s.19321 1.29173.5553 1.83533L2.84129 12.216c-.97617-1.1881-1.50923-2.67839-1.508-4.21604Zm6.66667 6.66664c-1.53765.0013-3.02795-.5318-4.216-1.508l2.38066-2.3806c.54361.3621 1.18218.5553 1.83534.5553s1.29173-.1932 1.83533-.5553l2.38071 2.3806c-1.1881.9762-2.67839 1.5093-4.21604 1.508Z" fill="#4A6375"/></svg>