<svg width="16" height="16" fill="none" xmlns="http://www.w3.org/2000/svg"><path d="M7.9987 5.33337c-.52741 0-1.04299.1564-1.48152.44942-.43853.29302-.78033.70949-.98216 1.19676-.20183.48727-.25464 1.02345-.15175 1.54073.1029.51728.35687.99244.72981 1.36538.37294.37294.8481.62694 1.36538.72984.51729.1029 1.05347.0501 1.54074-.1518.48727-.2018.90374-.54361 1.1968-.98214.293-.43853.4494-.9541.4494-1.48152 0-.70724-.281-1.38552-.78107-1.88562-.5001-.50009-1.17838-.78105-1.88563-.78105Zm0 4c-.2637 0-.52149-.07819-.74076-.2247-.21926-.14651-.39016-.35475-.49108-.59838-.10091-.24364-.12732-.51173-.07587-.77037.05145-.25864.17843-.49622.3649-.68269.18647-.18647.42405-.31346.68269-.3649.25865-.05145.52673-.02505.77037.07587.24364.10092.45187.27182.59838.49108.14651.21927.22471.47705.22471.74076 0 .35362-.14048.69276-.39052.94281-.25005.25005-.58919.39052-.94282.39052Z" fill="#4A6375"/><path d="m14.1946 9.26666-.296-.17066c.1332-.72504.1332-1.4683 0-2.19334l.296-.17066c.2276-.13132.4271-.30619.5872-.51463.16-.20843.2774-.44635.3455-.70016s.0856-.51855.0513-.77911c-.0342-.26055-.1194-.51181-.2507-.73943-.1313-.22763-.3062-.42716-.5146-.5872-.2085-.16004-.4464-.27747-.7002-.34556-.2538-.0681-.5185-.08554-.7791-.05132-.2606.03422-.5118.11942-.7394.25074l-.2967.17134c-.5603-.47873-1.2042-.84984-1.89934-1.09467V2c0-.53043-.21071-1.039141-.58579-1.414214C9.0377.210714 8.52899 0 7.99856 0S6.95942.210714 6.58435.585786C6.20928.960859 5.99856 1.46957 5.99856 2v.342c-.69507.24571-1.33877.61773-1.89866 1.09733l-.298-.17266c-.45971-.26522-1.00595-.33696-1.51855-.19943-.5126.13753-.94957.47305-1.21479.93276-.265213.45971-.336948 1.00594-.199421 1.51854.137531.5126.473051.94957.932761 1.21479l.296.17067c-.13326.72504-.13326 1.46829 0 2.19333l-.296.17067c-.45971.26521-.79523.70219-.932761 1.2148-.137527.5126-.065792 1.0588.199421 1.5185.26522.4597.70219.7953 1.21479.9328.5126.1375 1.05884.0658 1.51855-.1994l.29666-.1714c.56051.4788 1.20466.8499 1.9 1.0947V14c0 .5304.21072 1.0391.58579 1.4142S7.46813 16 7.99856 16s1.03914-.2107 1.41421-.5858c.37508-.3751.58579-.8838.58579-1.4142v-.342c.69504-.2457 1.33874-.6177 1.89864-1.0973l.298.172c.4597.2652 1.006.3369 1.5186.1994.5126-.1375.9495-.4731 1.2148-.9328.2652-.4597.3369-1.0059.1994-1.5185-.1375-.51261-.4731-.94959-.9328-1.2148l-.0006.00066Zm-1.6987-2.51733c.2258.81804.2258 1.68196 0 2.5-.0394.14238-.0304.29382.0256.43054.0559.13672.1558.25096.2837.32483l.7227.4173c.1532.0884.265.234.3108.4049.0459.1708.0219.3529-.0665.5061s-.234.265-.4049.3108c-.1708.0459-.3529.0219-.5061-.0665l-.724-.4186c-.128-.0742-.2772-.1037-.4238-.0837-.1467.0199-.2825.088-.3862.1937-.5934.6057-1.34092 1.0379-2.16197 1.25-.14331.0368-.27029.1203-.36094.2372-.09064.117-.1398.2608-.13973.4088V14c0 .1768-.07024.3464-.19526.4714s-.29459.1953-.47141.1953c-.17681 0-.34638-.0703-.4714-.1953-.12502-.125-.19526-.2946-.19526-.4714v-.8347c.00007-.1479-.04909-.2917-.13973-.4087-.09065-.1169-.21763-.2004-.36094-.2373-.8211-.2129-1.56845-.646-2.16133-1.2526-.10365-.1057-.23951-.1738-.38616-.1937-.14666-.02-.29577.0095-.42384.0837l-.72267.418c-.07584.0444-.15974.0735-.24685.0854-.08711.0119-.17571.0064-.26071-.016-.085-.0225-.16472-.0616-.23456-.115-.06984-.0534-.12842-.1201-.17239-.1962-.04396-.0762-.07242-.1602-.08376-.2474-.01133-.0872-.0053-.1758.01773-.2606.02304-.0849.06263-.1643.1165-.2338s.12095-.1276.19738-.1711l.72266-.4173c.12797-.07387.22779-.18811.28378-.32483.05599-.13672.06498-.28816.02556-.43054-.22577-.81804-.22577-1.68196 0-2.5.03871-.14208.02929-.29298-.02679-.42914-.05608-.13616-.15567-.24992-.28321-.32353l-.72267-.41733c-.15321-.0884-.26502-.23405-.31084-.4049-.04582-.17084-.0219-.35289.06651-.5061.0884-.15321.23405-.26502.40489-.31084.17085-.04582.3529-.0219.50611.06651l.724.41867c.12772.07434.27652.10414.42301.08471.1465-.01943.28239-.08699.38632-.19205.59339-.60577 1.34095-1.03798 2.162-1.25.14375-.03696.27106-.12083.36175-.23833.0907-.1175.13958-.26191.13891-.41033V2c0-.17681.07024-.34638.19527-.47141.12502-.12502.29459-.19526.4714-.19526.17681 0 .34638.07024.47141.19526.12502.12503.19526.2946.19526.47141v.83467c-.00008.14797.04908.29176.13973.40872.09064.11695.21762.20043.36093.23728.82134.21276 1.56891.64592 2.16201 1.25266.1036.10565.2395.1738.3862.19371.1466.01992.2957-.00953.4238-.08371l.7227-.418c.0758-.04446.1597-.07349.2468-.0854.0871-.01191.1757-.00647.2607.016.085.02248.1647.06154.2346.11494.0698.05341.1284.1201.1724.19624.0439.07614.0724.16023.0837.24741.0114.08719.0053.17576-.0177.26061-.023.08485-.0626.1643-.1165.23378-.0539.06949-.1209.12763-.1974.17109l-.7226.41733c-.1273.07381-.2266.18765-.2825.3238-.0558.13614-.065.28693-.0262.42887v-.00067Z" fill="#4A6375"/></svg>