<svg width="18" height="18" fill="none" xmlns="http://www.w3.org/2000/svg"><g clip-path="url(#a)" fill="#BAC8D3"><path d="M17.25 16.5h-15c-.19891 0-.38968-.079-.53033-.2197C1.57902 16.1397 1.5 15.9489 1.5 15.75v-15c0-.198912-.07902-.389678-.21967-.53033C1.13968.0790176.948912 0 .75 0 .551088 0 .360322.0790176.21967.21967.0790176.360322 0 .551088 0 .75v15c0 .5967.237053 1.169.65901 1.591.42196.4219.99425.659 1.59099.659h15c.1989 0 .3897-.079.5303-.2197.1407-.1406.2197-.3314.2197-.5303 0-.1989-.079-.3897-.2197-.5303-.1406-.1407-.3314-.2197-.5303-.2197Z"/><path d="M11.25 15c.1989 0 .3897-.079.5303-.2197.1407-.1406.2197-.3314.2197-.5303V9c0-.19891-.079-.38968-.2197-.53033-.1406-.14065-.3314-.21967-.5303-.21967-.1989 0-.3897.07902-.5303.21967C10.579 8.61032 10.5 8.80109 10.5 9v5.25c0 .1989.079.3897.2197.5303.1406.1407.3314.2197.5303.2197ZM5.25 15c.19891 0 .38968-.079.53033-.2197C5.92098 14.6397 6 14.4489 6 14.25V9c0-.19891-.07902-.38968-.21967-.53033C5.63968 8.32902 5.44891 8.25 5.25 8.25c-.19891 0-.38968.07902-.53033.21967C4.57902 8.61032 4.5 8.80109 4.5 9v5.25c0 .1989.07902.3897.21967.5303.14065.1407.33142.2197.53033.2197ZM14.25 15c.1989 0 .3897-.079.5303-.2197.1407-.1406.2197-.3314.2197-.5303v-9c0-.19891-.079-.38968-.2197-.53033C14.6397 4.57902 14.4489 4.5 14.25 4.5c-.1989 0-.3897.07902-.5303.21967-.1407.14065-.2197.33142-.2197.53033v9c0 .1989.079.3897.2197.5303.1406.1407.3314.2197.5303.2197ZM8.25 15c.19891 0 .38968-.079.53033-.2197C8.92098 14.6397 9 14.4489 9 14.25v-9c0-.19891-.07902-.38968-.21967-.53033C8.63968 4.57902 8.44891 4.5 8.25 4.5c-.19891 0-.38968.07902-.53033.21967C7.57902 4.86032 7.5 5.05109 7.5 5.25v9c0 .1989.07902.3897.21967.5303.14065.1407.33142.2197.53033.2197Z"/></g><defs><clipPath id="a"><path fill="#fff" d="M0 0h18v18H0z"/></clipPath></defs></svg>