<svg width="20" height="20" fill="none" xmlns="http://www.w3.org/2000/svg"><g clip-path="url(#a)" fill="#869FB2"><path d="M10 10c.9889 0 1.9556-.29324 2.7779-.84265.8222-.54941 1.4631-1.3303 1.8415-2.24393.3784-.91363.4775-1.91896.2845-2.88887-.1929-.9699-.6691-1.86082-1.3684-2.56008-.6992-.699264-1.5901-1.175468-2.56-1.3683942-.97-.192926-1.97529-.09390937-2.88892.2845292C7.17295.759043 6.39206 1.3999 5.84265 2.22215 5.29324 3.0444 5 4.0111 5 5c.00132 1.32568.52853 2.59668 1.46593 3.53407C7.40332 9.47147 8.67432 9.99868 10 10Zm0-8.33333c.6593 0 1.3037.1955 1.8519.56177s.9754.88686 1.2277 1.49595c.2523.60909.3183 1.27931.1897 1.92591-.1286.64661-.4461 1.24055-.9123 1.70672-.4662.46618-1.0601.78365-1.7067.91227-.6466.12861-1.31682.0626-1.92591-.18969-.60909-.25229-1.12968-.67953-1.49595-1.2277C6.86216 6.30374 6.66667 5.65927 6.66667 5c0-.88405.35119-1.7319.97631-2.35702C8.2681 2.01786 9.11595 1.66667 10 1.66667ZM10 11.6665c-1.98845.0022-3.89482.7931-5.30087 2.1991C3.29309 15.2717 2.50221 17.1781 2.5 19.1665c0 .221.0878.433.24408.5893.15628.1562.36824.244.58925.244.22102 0 .43298-.0878.58926-.244.15628-.1563.24408-.3683.24408-.5893 0-1.5471.61458-3.0308 1.70854-4.1248C6.96917 13.9478 8.4529 13.3332 10 13.3332s3.0308.6146 4.1248 1.7085c1.0939 1.094 1.7085 2.5777 1.7085 4.1248 0 .221.0878.433.2441.5893.1563.1562.3682.244.5893.244.221 0 .4329-.0878.5892-.244.1563-.1563.2441-.3683.2441-.5893-.0022-1.9884-.7931-3.8948-2.1991-5.3009-1.4061-1.406-3.3125-2.1969-5.3009-2.1991Z"/></g><defs><clipPath id="a"><path fill="#fff" d="M0 0h20v20H0z"/></clipPath></defs></svg>